<svg width="99" height="120" viewBox="0 0 99 120" fill="none" xmlns="http://www.w3.org/2000/svg">
<path d="M98.9638 72.1923C98.8783 69.4296 98.4509 66.7201 98.4081 64.0106C98.4081 63.32 97.4677 63.0543 97.3823 63.8512C96.4419 70.7047 94.5611 77.2394 92.5094 83.6679C91.74 86.0587 90.9279 88.3963 90.1585 90.787C89.1326 89.5651 88.6197 87.5993 88.0641 86.0055C87.7649 85.1023 87.4229 84.1992 87.0809 83.296C87.5084 83.1366 87.8503 82.6585 87.8076 82.1272C86.9954 73.8924 87.9358 65.817 89.4319 57.7947C89.6883 57.9541 89.9448 58.0603 90.244 58.1134C91.5691 58.4322 92.5094 57.3165 93.1506 55.9883C94.5184 53.2788 94.9458 50.038 95.0741 46.9035C95.2878 41.8032 94.8604 36.6498 94.1764 31.5495C94.5184 28.3087 94.4329 25.0679 92.5094 22.5178C91.6118 21.349 90.073 22.571 90.3722 24.0585C90.7996 26.0243 91.1844 28.0431 91.4836 30.062C91.3981 31.337 91.2271 32.559 91.0562 33.7809C90.5005 37.7655 89.7738 41.6438 89.0471 45.5753C88.7052 47.4348 88.3205 49.3473 88.0213 51.2068C87.5938 49.2942 87.5511 47.1691 87.3801 45.2565C87.1236 41.9095 86.5253 38.5624 86.0123 35.2685C85.5849 32.5058 85.0719 29.7432 84.559 26.9806C84.559 26.9274 84.559 26.8212 84.559 26.768C84.4308 24.5898 84.559 22.5709 84.8155 20.3927C85.0719 18.3207 85.4566 16.1956 85.8413 14.1768C86.0978 12.7955 86.397 11.4141 86.739 9.97967C86.8672 9.97967 86.9527 9.92656 87.0809 9.92656C87.8931 9.55466 88.577 8.70461 89.2181 7.96082C89.3891 7.80144 89.5601 7.58891 89.731 7.3764C89.8165 7.27014 89.902 7.16391 89.9448 7.00453C91.3553 5.67633 92.4667 4.08247 93.2361 2.06362C94.1765 -0.433388 94.6894 -3.14289 94.8176 -5.8524C95.1168 -12.1215 93.3216 -17.8593 91.6545 -23.6502C91.5263 -24.0752 91.3981 -24.4471 91.3126 -24.8721C90.9707 -28.3786 90.2012 -31.7788 89.0471 -35.0727C88.7479 -35.9227 87.7648 -36.1884 87.1664 -35.8696C86.4397 -35.4446 86.1833 -34.5945 86.2688 -33.6382C86.6107 -30.7693 87.3801 -27.8473 88.1923 -24.9784C88.6624 -20.3032 88.3632 -15.5217 87.8076 -10.9527C86.7817 -2.87727 84.6445 4.87942 83.4049 12.8486C83.1485 14.6018 82.9348 16.4081 82.721 18.1614C82.5073 17.2582 82.2936 16.4081 82.0799 15.505C81.225 11.9454 80.2846 8.43896 79.216 4.93253C78.4039 2.22301 77.3353 -0.699001 75.0698 -2.02719C73.9157 -2.66473 72.8471 -1.6022 73.0181 -0.0614929C73.702 4.93252 74.8134 9.82029 76.3522 14.4955C77.7627 18.7458 79.4297 22.996 81.6524 26.7149C82.4218 30.5932 83.1057 34.5247 83.7041 38.4561C84.2171 41.8563 84.6018 45.3096 85.1574 48.7629C85.5421 51.1006 86.0978 53.5445 87.2519 55.5102C86.5253 60.026 85.9696 64.5419 85.6276 69.1109C85.3712 72.5642 85.3712 76.0175 85.5849 79.4708C84.6445 77.08 83.7041 74.6893 82.7638 72.3517C80.7121 67.3046 78.3184 62.4168 75.7965 57.6884C75.198 56.5727 73.6165 56.8915 73.6592 58.4322C73.702 59.7604 73.7875 61.0886 74.0012 62.4168C74.2149 63.6919 74.3432 65.02 74.5997 66.3482C75.1126 68.8452 75.9247 71.236 76.9933 73.4142C78.8313 77.1332 81.4814 80.1615 84.559 82.1803C85.3712 84.1461 86.1405 86.1649 86.9099 88.1838C87.5084 89.8307 88.2778 91.6371 89.4746 92.7527C88.406 96.206 87.4656 99.7125 86.7817 103.272C86.0978 107.044 85.8841 110.816 86.226 114.641C86.2688 115.12 86.8245 115.12 86.8245 114.641C86.91 107.788 88.4487 101.094 90.5005 94.7716C90.6287 94.3466 90.7997 93.9215 90.9279 93.4434C92.082 93.6559 93.2361 93.0715 94.1337 92.009C96.7411 88.9807 98.1089 84.2523 98.5791 79.949C99.0066 77.3457 99.0493 74.7955 98.9638 72.1923ZM97.1258 74.4768C97.1258 74.2643 97.1685 74.1049 97.2113 73.8924C97.254 73.9455 97.3395 73.9986 97.425 73.9986C97.254 74.1049 97.1686 74.2643 97.1258 74.4768Z" fill="#2C6F5E"/>
<path d="M61.9638 97.1923C61.8783 94.4296 61.4509 91.7201 61.4081 89.0106C61.4081 88.32 60.4677 88.0543 60.3823 88.8512C59.4419 95.7047 57.5611 102.239 55.5094 108.668C54.74 111.059 53.9279 113.396 53.1585 115.787C52.1326 114.565 51.6197 112.599 51.0641 111.006C50.7649 110.102 50.4229 109.199 50.0809 108.296C50.5084 108.137 50.8503 107.658 50.8076 107.127C49.9954 98.8924 50.9358 90.817 52.4319 82.7947C52.6883 82.9541 52.9448 83.0603 53.244 83.1134C54.5691 83.4322 55.5094 82.3165 56.1506 80.9883C57.5184 78.2788 57.9458 75.038 58.0741 71.9035C58.2878 66.8032 57.8604 61.6498 57.1764 56.5495C57.5184 53.3087 57.4329 50.0679 55.5094 47.5178C54.6118 46.349 53.073 47.571 53.3722 49.0585C53.7996 51.0243 54.1844 53.0431 54.4836 55.062C54.3981 56.337 54.2271 57.559 54.0562 58.7809C53.5005 62.7655 52.7738 66.6438 52.0471 70.5753C51.7052 72.4348 51.3205 74.3473 51.0213 76.2068C50.5938 74.2942 50.5511 72.1691 50.3801 70.2565C50.1236 66.9095 49.5253 63.5624 49.0123 60.2685C48.5849 57.5058 48.0719 54.7432 47.559 51.9806C47.559 51.9274 47.559 51.8212 47.559 51.768C47.4308 49.5898 47.559 47.5709 47.8155 45.3927C48.0719 43.3207 48.4566 41.1956 48.8413 39.1768C49.0978 37.7955 49.397 36.4141 49.739 34.9797C49.8672 34.9797 49.9527 34.9266 50.0809 34.9266C50.8931 34.5547 51.577 33.7046 52.2181 32.9608C52.3891 32.8014 52.5601 32.5889 52.731 32.3764C52.8165 32.2701 52.902 32.1639 52.9448 32.0045C54.3553 30.6763 55.4667 29.0825 56.2361 27.0636C57.1765 24.5666 57.6894 21.8571 57.8176 19.1476C58.1168 12.8785 56.3216 7.14072 54.6545 1.34979C54.5263 0.924771 54.3981 0.552883 54.3126 0.127861C53.9707 -3.37857 53.2012 -6.77876 52.0471 -10.0727C51.7479 -10.9227 50.7648 -11.1884 50.1664 -10.8696C49.4397 -10.4446 49.1833 -9.59452 49.2688 -8.63822C49.6107 -5.76932 50.3801 -2.8473 51.1923 0.0215988C51.6624 4.69684 51.3632 9.47832 50.8076 14.0473C49.7817 22.1227 47.6445 29.8794 46.4049 37.8486C46.1485 39.6018 45.9348 41.4081 45.721 43.1614C45.5073 42.2582 45.2936 41.4081 45.0799 40.505C44.225 36.9454 43.2846 33.439 42.216 29.9325C41.4039 27.223 40.3353 24.301 38.0698 22.9728C36.9157 22.3353 35.8471 23.3978 36.0181 24.9385C36.702 29.9325 37.8134 34.8203 39.3522 39.4955C40.7627 43.7458 42.4297 47.996 44.6524 51.7149C45.4218 55.5932 46.1057 59.5247 46.7041 63.4561C47.2171 66.8563 47.6018 70.3096 48.1574 73.7629C48.5421 76.1006 49.0978 78.5445 50.2519 80.5102C49.5253 85.026 48.9696 89.5419 48.6276 94.1109C48.3712 97.5642 48.3712 101.017 48.5849 104.471C47.6445 102.08 46.7041 99.6893 45.7638 97.3517C43.7121 92.3046 41.3184 87.4168 38.7965 82.6884C38.198 81.5727 36.6165 81.8915 36.6592 83.4322C36.702 84.7604 36.7875 86.0886 37.0012 87.4168C37.2149 88.6919 37.3432 90.02 37.5997 91.3482C38.1126 93.8452 38.9247 96.236 39.9933 98.4142C41.8313 102.133 44.4814 105.161 47.559 107.18C48.3712 109.146 49.1405 111.165 49.9099 113.184C50.5084 114.831 51.2778 116.637 52.4746 117.753C51.406 121.206 50.4656 124.712 49.7817 128.272C49.0978 132.044 48.8841 135.816 49.226 139.641C49.2688 140.12 49.8245 140.12 49.8245 139.641C49.91 132.788 51.4487 126.094 53.5005 119.772C53.6287 119.347 53.7997 118.922 53.9279 118.443C55.082 118.656 56.2361 118.072 57.1337 117.009C59.7411 113.981 61.1089 109.252 61.5791 104.949C62.0066 102.346 62.0493 99.7955 61.9638 97.1923ZM60.1258 99.4768C60.1258 99.2643 60.1685 99.1049 60.2113 98.8924C60.254 98.9455 60.3395 98.9986 60.425 98.9986C60.254 99.1049 60.1686 99.2643 60.1258 99.4768Z" fill="#2C6F5E"/>
<path d="M25.9638 151.192C25.8783 148.43 25.4509 145.72 25.4081 143.011C25.4081 142.32 24.4677 142.054 24.3823 142.851C23.4419 149.705 21.5611 156.239 19.5094 162.668C18.74 165.059 17.9279 167.396 17.1585 169.787C16.1326 168.565 15.6197 166.599 15.0641 165.006C14.7649 164.102 14.4229 163.199 14.0809 162.296C14.5084 162.137 14.8503 161.658 14.8076 161.127C13.9954 152.892 14.9358 144.817 16.4319 136.795C16.6883 136.954 16.9448 137.06 17.244 137.113C18.5691 137.432 19.5094 136.317 20.1506 134.988C21.5184 132.279 21.9458 129.038 22.0741 125.903C22.2878 120.803 21.8604 115.65 21.1764 110.55C21.5184 107.309 21.4329 104.068 19.5094 101.518C18.6118 100.349 17.073 101.571 17.3722 103.059C17.7996 105.024 18.1844 107.043 18.4836 109.062C18.3981 110.337 18.2271 111.559 18.0562 112.781C17.5005 116.765 16.7738 120.644 16.0471 124.575C15.7052 126.435 15.3205 128.347 15.0213 130.207C14.5938 128.294 14.5511 126.169 14.3801 124.257C14.1236 120.909 13.5253 117.562 13.0123 114.268C12.5849 111.506 12.0719 108.743 11.559 105.981C11.559 105.927 11.559 105.821 11.559 105.768C11.4308 103.59 11.559 101.571 11.8155 99.3927C12.0719 97.3207 12.4566 95.1956 12.8413 93.1768C13.0978 91.7955 13.397 90.4141 13.739 88.9797C13.8672 88.9797 13.9527 88.9266 14.0809 88.9266C14.8931 88.5547 15.577 87.7046 16.2181 86.9608C16.3891 86.8014 16.5601 86.5889 16.731 86.3764C16.8165 86.2701 16.902 86.1639 16.9448 86.0045C18.3553 84.6763 19.4667 83.0825 20.2361 81.0636C21.1765 78.5666 21.6894 75.8571 21.8176 73.1476C22.1168 66.8785 20.3216 61.1407 18.6545 55.3498C18.5263 54.9248 18.3981 54.5529 18.3126 54.1279C17.9707 50.6214 17.2012 47.2212 16.0471 43.9273C15.7479 43.0773 14.7648 42.8116 14.1664 43.1304C13.4397 43.5554 13.1833 44.4055 13.2688 45.3618C13.6107 48.2307 14.3801 51.1527 15.1923 54.0216C15.6624 58.6968 15.3632 63.4783 14.8076 68.0473C13.7817 76.1227 11.6445 83.8794 10.4049 91.8486C10.1485 93.6018 9.93476 95.4081 9.72104 97.1614C9.50732 96.2582 9.2936 95.4081 9.07988 94.505C8.225 90.9454 7.28459 87.439 6.21599 83.9325C5.40385 81.223 4.33527 78.301 2.06983 76.9728C0.915733 76.3353 -0.152892 77.3978 0.018085 78.9385C0.701992 83.9325 1.81336 88.8203 3.35215 93.4955C4.76271 97.7458 6.42974 101.996 8.65244 105.715C9.42183 109.593 10.1057 113.525 10.7041 117.456C11.2171 120.856 11.6018 124.31 12.1574 127.763C12.5421 130.101 13.0978 132.544 14.2519 134.51C13.5253 139.026 12.9696 143.542 12.6276 148.111C12.3712 151.564 12.3712 155.017 12.5849 158.471C11.6445 156.08 10.7041 153.689 9.76378 151.352C7.71206 146.305 5.31836 141.417 2.79646 136.688C2.19804 135.573 0.616503 135.892 0.659248 137.432C0.701992 138.76 0.787501 140.089 1.00122 141.417C1.21494 142.692 1.34319 144.02 1.59965 145.348C2.11258 147.845 2.92471 150.236 3.99331 152.414C5.83131 156.133 8.48143 159.161 11.559 161.18C12.3712 163.146 13.1405 165.165 13.9099 167.184C14.5084 168.831 15.2778 170.637 16.4746 171.753C15.406 175.206 14.4656 178.712 13.7817 182.272C13.0978 186.044 12.8841 189.816 13.226 193.641C13.2688 194.12 13.8245 194.12 13.8245 193.641C13.91 186.788 15.4487 180.094 17.5005 173.772C17.6287 173.347 17.7997 172.922 17.9279 172.443C19.082 172.656 20.2361 172.072 21.1337 171.009C23.7411 167.981 25.1089 163.252 25.5791 158.949C26.0066 156.346 26.0493 153.796 25.9638 151.192ZM24.1258 153.477C24.1258 153.264 24.1685 153.105 24.2113 152.892C24.254 152.946 24.3395 152.999 24.425 152.999C24.254 153.105 24.1686 153.264 24.1258 153.477Z" fill="#2C6F5E"/>
</svg>
