<svg width="128" height="108" viewBox="0 0 128 108" fill="none" xmlns="http://www.w3.org/2000/svg">
<path d="M92.3833 94.3034C92.1722 94.3406 90.4598 93.0258 88.6031 91.3868C82.705 86.0907 78.8836 85.4099 76.6368 89.2145L75.3955 91.3123L73.916 88.6018C70.8849 83.0187 66.288 81.6444 64.4041 85.7782C62.7064 89.4859 62.3845 91.8586 62.1685 92.1152C62.1412 92.2074 61.1945 92.0247 60.0987 91.7373C55.1217 90.43 53.7114 92.5577 47.5556 99.6296L46.1687 98.4321C38.7223 92.0108 33.5997 93.0888 26.9803 102.471C24.6787 105.717 23.7723 106.751 23.4442 106.372C14.9574 96.0264 7.38641 94.0841 5.12152 101.737C3.15681 108.376 2.62948 112.795 3.65416 115.149C4.94004 118.243 10.1303 118.289 9.82941 112.137C9.75661 110.489 10.9113 103.95 11.4821 102.495C11.8817 101.55 12.0955 101.775 17.8526 108.494C22.4538 113.844 27.5069 118.546 30.4523 110.555C35.7676 96.246 40.0224 93.7042 45.3751 101.587C47.5008 104.752 51.7816 104.827 52.7591 101.727C53.476 99.3722 55.3355 96.3351 57.0268 94.8134L58.348 93.6628L60.3015 95.1099C63.7386 97.5626 67.1053 97.8867 67.9154 92.8497C68.3663 89.9736 68.6496 90.0985 70.2513 93.7488C73.2034 100.613 79.3435 102.589 81.2702 94.2529C82.0885 90.7439 82.0463 90.7514 84.5965 93.3605C87.5172 96.3412 90.0914 97.1108 92.384 95.789C93.0497 95.3657 93.0591 94.1842 92.3833 94.3034Z" fill="#405AAB"/>
<path d="M115.441 48.8454C111.025 47.5222 107.122 48.1227 104.67 50.5256C103.328 51.8131 102.97 52.0076 102.585 51.5501C99.4197 47.6855 95.3736 45.9905 92.9483 47.5567C91.9667 48.1676 91.7997 51.1743 91.4146 54.9206C88.8828 53.6592 82.8454 51.7903 80.0713 52.367C76.206 53.1799 74.4364 57.4764 73.0654 59.3383L71.8261 57.4988C66.9755 50.253 61.5397 52.0434 58.1906 61.9612L56.6773 66.476L55.0598 64.2214C48.6666 55.1458 43.2901 56.5312 39.3033 68.2692L37.775 72.6987C33.2219 67.6337 27.1497 58.896 20.7944 61.1551C17.7994 62.2087 16.0845 66.3203 14.0796 75.2128C11.0834 88.6152 19.5975 84.2677 20.4374 80.1347C22.8751 68.0131 24.2782 65.8394 27.2491 69.3442C31.1556 73.9539 36.5046 79.5791 37.3279 80.047C39.8821 81.4358 43.3595 80.6475 43.7137 78.7021C46.1086 65.8436 47.5404 65.8096 47.9448 64.6436C51.1307 69.862 52.8757 72.839 54.2691 74.5638C56.3841 77.1686 61.3032 79.3665 63.2439 71.0984C65.4077 61.8713 66.2957 58.9998 66.7487 59.8395C71.1007 68.7058 76.322 69.4054 79.3245 61.4755C80.9598 57.1586 82.2638 55.6583 82.6313 55.0242C92.4453 60.519 91.2193 59.9908 92.2661 60.2441C95.8591 61.0994 98.8354 58.2104 98.0839 53.7012C98.0165 53.319 98.5985 53.6543 99.3897 54.4344C102.504 57.5197 106.243 57.473 108.914 54.331C111.187 51.6532 112.014 51.1569 114.013 51.3737C118.879 51.7857 119.765 50.141 115.441 48.8454Z" fill="#405AAB"/>
<path d="M115.517 18.4248L113.886 18.7549C109.975 14.0116 108.057 11.4859 106.251 10.3303C103.861 8.81417 98.2668 8.03155 98.4436 17.1394C98.588 23.8524 98.4177 24.8516 97.3449 24.6617C95.6828 24.323 91.4179 24.696 89.7115 25.3338C88.0051 25.9716 87.9139 25.9456 86.8434 24.7866C84.2584 21.9153 79.007 22.5886 74.8143 26.3181C73.8027 27.2124 72.9651 27.8651 72.9159 27.8316C72.8595 27.7573 71.999 26.5614 71.0257 25.2168C68.2042 21.2501 66.5603 21.751 61.8142 22.5878L61.1731 18.9521C59.3438 8.57748 52.2229 10.9282 48.5811 17.0453C46.816 20.052 44.8554 24.6516 42.6645 30.8919L40.6667 36.5087C36.9706 37.1604 37.0486 37.3572 34.5885 35.6852C32.1283 34.0132 30.6919 33.9717 27.7363 35.63C26.8351 36.1679 25.9963 36.5685 25.9543 36.5759C24.5263 36.8277 26.0099 21.9097 16.8885 23.4759C13.7384 24.0314 12.2998 26.4331 7.36586 39.2218C1.30406 54.9469 11.0002 50.4997 11.708 47.6374C12.3403 45.0832 16.1427 35.9471 17.1746 33.4488C17.7435 35.2015 18.4192 37.3149 19.0014 40.3709C20.1225 46.2379 26.3003 45.9067 29.0037 39.8707C30.6536 36.2106 34.1096 36.6536 34.1494 40.5634C34.1399 41.4916 35.2728 42.5136 36.1128 42.3655C37.7929 42.0693 41.9835 43.7309 44.3103 42.4362C46.0503 41.4977 47.1314 39.0328 49.0464 33.6834C49.6199 32.024 50.803 28.9094 51.8061 26.2477C52.304 24.8964 54.3224 25.0455 54.5673 26.4343C55.9691 29.4721 53.8946 35.1449 60.1947 34.034C61.8747 33.7378 63.2919 32.6877 64.1667 31.0173C65.3882 28.6119 65.1638 28.5672 67.6924 31.3643C70.6578 34.6739 74.4114 34.3485 78.5117 30.3405C81.0641 27.8689 81.2945 27.7019 81.8441 28.3631C83.4583 30.3949 87.5792 30.679 91.4384 28.9877C93.8504 27.9307 94.1444 27.8789 96.8505 28.244C103.553 29.168 105.764 27.2202 105.453 20.7892L105.337 18.4092L106.653 19.7353C109.765 22.8928 112.567 24.2935 115.277 23.9421C115.613 23.8828 125.275 21.2108 125.677 20.2976C126.516 18.423 120.612 17.3579 115.517 18.4248Z" fill="#405AAB"/>
</svg>
